<?xml version="1.0" encoding="UTF-8" standalone="yes"?>
<svg version="1.2" width="192px" height="192px" fill-rule="evenodd" baseProfile="tiny-ps" xmlns="http://www.w3.org/2000/svg">
  <title>bimi-svg-tiny-12-ps</title>
  <g>
    <path fill="#650b09" d="M 162.5,45.5 C 159.884,46.4798 157.551,47.9798 155.5,50C 154.207,50.49 152.873,50.6567 151.5,50.5C 150.85,50.1961 150.183,49.8627 149.5,49.5C 147.641,51.1924 145.641,52.6924 143.5,54C 144.808,54.8238 146.308,55.3238 148,55.5C 147.524,57.3201 147.691,58.9867 148.5,60.5C 148.196,61.1499 147.863,61.8165 147.5,62.5C 148.747,64.323 149.414,66.323 149.5,68.5C 138.46,47.6407 121.127,36.3073 97.5,34.5C 96.8333,34.5 96.1667,34.5 95.5,34.5C 63.1548,36.8459 43.4882,53.8459 36.5,85.5C 36.3123,80.4178 37.3123,75.5844 39.5,71C 39.4301,70.2352 39.0967,69.7352 38.5,69.5C 39.6843,68.3121 39.6843,67.1455 38.5,66C 39.3081,65.6924 39.9747,65.1924 40.5,64.5C 39.1502,63.0499 37.4835,62.3832 35.5,62.5C 35.7986,60.5447 36.7986,59.2114 38.5,58.5C 37.1744,60.5648 37.841,61.8981 40.5,62.5C 41.2868,61.7579 41.9535,60.9246 42.5,60C 41.2899,58.9609 40.2899,57.7942 39.5,56.5C 39.3284,55.5084 39.6618,54.8417 40.5,54.5C 42.4792,59.0746 44.4792,59.2413 46.5,55C 44.819,52.4924 42.4857,50.9924 39.5,50.5C 37.7809,49.9779 36.4475,48.9779 35.5,47.5C 36.1174,47.6107 36.6174,47.944 37,48.5C 40.4651,44.0332 44.2984,39.8666 48.5,36C 45.5878,34.1422 44.0878,31.6422 44,28.5C 49.9957,24.0001 56.329,20.0001 63,16.5C 65.1047,19.064 66.938,21.7306 68.5,24.5C 73.6086,22.2229 78.9419,20.8895 84.5,20.5C 84.6556,17.9339 84.3223,15.4339 83.5,13C 83.9054,12.0546 84.572,11.3879 85.5,11C 92.1583,10.5004 98.825,10.3337 105.5,10.5C 105.5,13.8333 105.5,17.1667 105.5,20.5C 112,20.9996 118.167,22.6663 124,25.5C 125,23.1667 126,20.8333 127,18.5C 128.049,17.4829 129.216,17.3162 130.5,18C 136.046,20.5998 141.046,23.9331 145.5,28C 144.964,30.24 143.797,32.0734 142,33.5C 141.333,34.5 141.333,35.5 142,36.5C 147.047,39.8802 151.047,44.2135 154,49.5C 156.459,46.507 159.292,45.1737 162.5,45.5 Z"/>
  </g>
  <g>
    <path fill="#c59b9b" d="M 94.5,31.5 C 93.6993,29.9582 93.366,28.2915 93.5,26.5C 92.0222,26.238 90.6888,26.5713 89.5,27.5C 90.2458,28.7362 90.5792,30.0695 90.5,31.5C 89.1667,31.5 87.8333,31.5 86.5,31.5C 86.6567,30.1266 86.49,28.7932 86,27.5C 85.7978,29.2556 85.2978,30.9223 84.5,32.5C 83.6143,31.675 83.281,30.675 83.5,29.5C 80.7952,29.3802 80.1285,30.3802 81.5,32.5C 79.0478,34.0841 76.5478,34.4174 74,33.5C 73.2797,31.8876 73.4464,30.3876 74.5,29C 81.0763,27.2511 87.7429,26.0845 94.5,25.5C 94.5573,30.6817 95.224,30.6817 96.5,25.5C 100.367,26.1347 104.2,26.8013 108,27.5C 108.308,26.6919 108.808,26.0253 109.5,25.5C 111.493,29.8555 110.159,32.1889 105.5,32.5C 105.323,25.8656 104.823,25.8656 104,32.5C 102.615,31.4495 101.615,30.1161 101,28.5C 100.517,29.448 100.351,30.448 100.5,31.5C 98.5,31.5 96.5,31.5 94.5,31.5 Z"/>
  </g>
  <g>
    <path fill="#e8d9d9" d="M 94.5,31.5 C 93.1667,31.5 91.8333,31.5 90.5,31.5C 90.5792,30.0695 90.2458,28.7362 89.5,27.5C 90.6888,26.5713 92.0222,26.238 93.5,26.5C 93.366,28.2915 93.6993,29.9582 94.5,31.5 Z"/>
  </g>
  <g>
    <path fill="#d0b1b0" d="M 70.5,27.5 C 73.1125,28.0955 73.1125,28.9288 70.5,30C 71.8583,31.8316 72.1916,33.6649 71.5,35.5C 70.316,33.9539 69.316,32.2873 68.5,30.5C 67.6043,31.5063 66.9377,31.5063 66.5,30.5C 67.6243,29.1408 68.9577,28.1408 70.5,27.5 Z"/>
  </g>
  <g>
    <path fill="#ceaeae" d="M 111.5,28.5 C 112.649,28.7911 113.316,29.6244 113.5,31C 113.167,31.8333 112.833,32.6667 112.5,33.5C 111.548,31.9547 111.215,30.288 111.5,28.5 Z"/>
  </g>
  <g>
    <path fill="#c09392" d="M 120.5,28.5 C 122.312,28.7713 123.978,29.438 125.5,30.5C 124.415,32.8773 123.248,35.2106 122,37.5C 120.184,36.6705 118.351,35.8372 116.5,35C 115.151,33.3646 115.318,31.8646 117,30.5C 117.333,31.8333 117.667,33.1667 118,34.5C 119.319,32.7128 120.152,30.7128 120.5,28.5 Z"/>
  </g>
  <g>
    <path fill="#e4d2d2" d="M 65.5,38.5 C 64.5116,37.205 63.5116,35.8717 62.5,34.5C 64.7036,33.6494 66.037,34.6494 66.5,37.5C 66.3764,38.1067 66.0431,38.44 65.5,38.5 Z"/>
  </g>
  <g>
    <path fill="#e0cbcb" d="M 60.5,35.5 C 64.8477,39.4758 64.5144,40.1425 59.5,37.5C 59.3284,36.5084 59.6618,35.8417 60.5,35.5 Z"/>
  </g>
  <g>
    <path fill="#dac1c1" d="M 59.5,37.5 C 59.7329,39.0618 60.3995,40.3951 61.5,41.5C 58.2468,43.4093 55.2468,45.7426 52.5,48.5C 51.0992,48.0291 49.7658,47.3624 48.5,46.5C 50.435,45.787 50.7683,44.787 49.5,43.5C 51.2984,42.5371 52.6317,43.2038 53.5,45.5C 53.8333,45.1667 54.1667,44.8333 54.5,44.5C 53.8333,43.5 53.1667,42.5 52.5,41.5C 53.0253,40.8076 53.6919,40.3076 54.5,40C 53.6996,35.7243 54.5329,35.8909 57,40.5C 57.2355,38.8807 58.0689,37.8807 59.5,37.5 Z"/>
  </g>
  <g>
    <path fill="#9c5755" d="M 60.5,35.5 C 60.8417,34.6618 61.5084,34.3284 62.5,34.5C 63.5116,35.8717 64.5116,37.205 65.5,38.5C 64.5637,39.9744 63.2303,40.9744 61.5,41.5C 60.3995,40.3951 59.7329,39.0618 59.5,37.5C 64.5144,40.1425 64.8477,39.4758 60.5,35.5 Z"/>
  </g>
  <g>
    <path fill="#d1b0af" d="M 128.5,31.5 C 129.289,31.7828 129.956,32.2828 130.5,33C 129.289,33.8928 129.289,34.7261 130.5,35.5C 131.768,34.5721 133.101,34.4054 134.5,35C 131.8,35.9492 130.967,37.7825 132,40.5C 132.689,39.6433 133.522,38.9767 134.5,38.5C 136.498,40.3337 138.832,41.3337 141.5,41.5C 141.5,42.5 141.5,43.5 141.5,44.5C 140.325,44.281 139.325,44.6143 138.5,45.5C 140.021,45.8797 141.687,46.0464 143.5,46C 142.09,46.3678 141.09,47.2011 140.5,48.5C 142.167,48.5 143.833,48.5 145.5,48.5C 144.167,49.5 142.833,50.5 141.5,51.5C 139.02,49.6961 137.353,47.3627 136.5,44.5C 133.774,44.7361 131.441,43.9028 129.5,42C 129.056,40.4667 128.723,38.9667 128.5,37.5C 127.346,39.8559 126.013,40.0226 124.5,38C 126.221,36.0562 127.554,33.8895 128.5,31.5 Z"/>
  </g>
  <g>
    <path fill="#b07876" d="M 49.5,43.5 C 50.7683,44.787 50.435,45.787 48.5,46.5C 49.7658,47.3624 51.0992,48.0291 52.5,48.5C 51.8333,49.8333 50.8333,50.8333 49.5,51.5C 48.2993,49.0905 46.6326,47.0905 44.5,45.5C 45.6354,43.7868 47.302,43.1201 49.5,43.5 Z"/>
  </g>
  <g>
    <path fill="#650301" d="M 35.5,47.5 C 36.4475,48.9779 37.7809,49.9779 39.5,50.5C 39.9371,52.0744 40.9371,53.2411 42.5,54C 41.9056,54.4643 41.2389,54.631 40.5,54.5C 39.6618,54.8417 39.3284,55.5084 39.5,56.5C 38.6618,56.8417 38.3284,57.5084 38.5,58.5C 36.7986,59.2114 35.7986,60.5447 35.5,62.5C 34.603,63.5981 33.7697,63.5981 33,62.5C 32.3076,63.0253 31.8076,63.6919 31.5,64.5C 33.6549,65.4104 35.6549,66.5771 37.5,68C 35.7295,68.5354 35.3961,69.3687 36.5,70.5C 37.1835,70.1373 37.8501,69.8039 38.5,69.5C 39.0967,69.7352 39.4301,70.2352 39.5,71C 37.3123,75.5844 36.3123,80.4178 36.5,85.5C 36.3339,91.1764 36.5006,96.8431 37,102.5C 37.1981,104.382 37.6981,106.048 38.5,107.5C 38.6495,108.552 38.4828,109.552 38,110.5C 36.4878,111.257 35.1545,112.257 34,113.5C 31.0575,126.364 27.8908,139.031 24.5,151.5C 24.8457,148.115 25.5123,144.782 26.5,141.5C 24.1667,136.167 21.8333,130.833 19.5,125.5C 19.6082,124.558 19.9415,123.725 20.5,123C 22.779,122.527 24.779,121.527 26.5,120C 24.343,114.719 23.0096,109.219 22.5,103.5C 19.5832,104.291 16.7499,104.291 14,103.5C 13.5004,96.8417 13.3337,90.175 13.5,83.5C 16.4475,83.2229 19.2809,83.5562 22,84.5C 23.0578,78.7088 24.5578,73.0422 26.5,67.5C 23.6806,66.2573 21.0139,64.7573 18.5,63C 21.6897,56.1206 25.523,49.6206 30,43.5C 31.9917,44.6647 33.825,45.998 35.5,47.5 Z"/>
  </g>
  <g>
    <path fill="#650502" d="M 162.5,45.5 C 166.489,50.3576 169.489,55.8576 171.5,62C 171.355,62.772 171.022,63.4387 170.5,64C 168.167,65 165.833,66 163.5,67C 165.698,72.625 167.198,78.4583 168,84.5C 170.73,84.8447 173.563,85.0114 176.5,85C 177.641,90.7504 177.807,96.5837 177,102.5C 174.02,102.585 171.02,102.919 168,103.5C 167.198,109.542 165.698,115.375 163.5,121C 166.864,121.489 169.531,122.989 171.5,125.5C 169.53,130.774 167.03,135.774 164,140.5C 163.51,141.793 163.343,143.127 163.5,144.5C 160.115,134.799 157.282,124.799 155,114.5C 152.828,113.491 151.662,111.824 151.5,109.5C 153.068,107.189 153.902,104.522 154,101.5C 154.667,96.8333 154.667,92.1667 154,87.5C 153.276,89.9589 151.943,90.9589 150,90.5C 149.583,91.756 148.75,92.4226 147.5,92.5C 147.586,91.5041 147.252,90.6708 146.5,90C 148.382,89.8019 150.048,89.3019 151.5,88.5C 155.675,83.8623 158.175,78.5289 159,72.5C 157.373,73.5323 156.207,74.8656 155.5,76.5C 154.167,76.5 152.833,76.5 151.5,76.5C 151.037,73.779 150.371,71.1123 149.5,68.5C 149.414,66.323 148.747,64.323 147.5,62.5C 147.863,61.8165 148.196,61.1499 148.5,60.5C 149.343,58.8267 150.676,57.66 152.5,57C 152.457,54.8611 152.123,52.6945 151.5,50.5C 152.873,50.6567 154.207,50.49 155.5,50C 157.551,47.9798 159.884,46.4798 162.5,45.5 Z"/>
  </g>
  <g>
    <path fill="#ddc7c6" d="M 44.5,45.5 C 46.6326,47.0905 48.2993,49.0905 49.5,51.5C 49.44,52.0431 49.1067,52.3764 48.5,52.5C 47.1851,50.6841 45.6851,49.0175 44,47.5C 43.3083,46.5632 43.475,45.8966 44.5,45.5 Z"/>
  </g>
  <g>
    <path fill="#ff7c00" d="M 62.5,52.5 C 61.8333,52.5 61.5,52.8333 61.5,53.5C 59.9519,53.1788 59.2852,52.1788 59.5,50.5C 61.1788,50.2852 62.1788,50.9519 62.5,52.5 Z"/>
  </g>
  <g>
    <path fill="#ff8100" d="M 84.5,50.5 C 85.5,50.5 86.5,50.5 87.5,50.5C 87.5,51.5 87.5,52.5 87.5,53.5C 84.4331,53.8795 83.4331,52.8795 84.5,50.5 Z"/>
  </g>
  <g>
    <path fill="#ff7f00" d="M 111.5,52.5 C 112.5,52.5 113.5,52.5 114.5,52.5C 114.762,53.9778 114.429,55.3112 113.5,56.5C 111.889,55.6798 111.222,54.3464 111.5,52.5 Z"/>
  </g>
  <g>
    <path fill="#ff7f00" d="M 61.5,53.5 C 62.1667,53.5 62.5,53.1667 62.5,52.5C 63.7079,51.7659 65.0413,51.4326 66.5,51.5C 66.5,52.5 66.5,53.5 66.5,54.5C 65.0695,54.4208 63.7362,54.7542 62.5,55.5C 61.7025,55.0431 61.3691,54.3764 61.5,53.5 Z"/>
  </g>
  <g>
    <path fill="#d1b2b2" d="M 151.5,50.5 C 152.123,52.6945 152.457,54.8611 152.5,57C 150.676,57.66 149.343,58.8267 148.5,60.5C 147.691,58.9867 147.524,57.3201 148,55.5C 146.308,55.3238 144.808,54.8238 143.5,54C 145.641,52.6924 147.641,51.1924 149.5,49.5C 150.183,49.8627 150.85,50.1961 151.5,50.5 Z"/>
  </g>
  <g>
    <path fill="#721413" d="M 149.5,51.5 C 150.713,52.4971 150.546,53.4971 149,54.5C 148.53,53.4232 148.697,52.4232 149.5,51.5 Z"/>
  </g>
  <g>
    <path fill="#d9bebe" d="M 39.5,50.5 C 42.4857,50.9924 44.819,52.4924 46.5,55C 44.4792,59.2413 42.4792,59.0746 40.5,54.5C 41.2389,54.631 41.9056,54.4643 42.5,54C 40.9371,53.2411 39.9371,52.0744 39.5,50.5 Z"/>
  </g>
  <g>
    <path fill="#fe8600" d="M 95.5,34.5 C 96.1667,34.5 96.8333,34.5 97.5,34.5C 100.233,42.367 102.566,50.367 104.5,58.5C 108.576,59.3941 109.243,61.3941 106.5,64.5C 108.836,65.7123 111.003,65.379 113,63.5C 122.016,65.2458 131.183,66.0791 140.5,66C 131.933,72.8662 123.1,79.3662 114,85.5C 115.032,90.1149 116.198,94.7816 117.5,99.5C 111.996,100.365 106.329,101.032 100.5,101.5C 97.7349,97.6729 95.0683,97.6729 92.5,101.5C 86.4631,101.012 80.4631,100.345 74.5,99.5C 76.4105,94.6177 77.5772,89.6177 78,84.5C 69.0528,78.7129 60.5528,72.3796 52.5,65.5C 56.1224,64.6747 59.789,64.1747 63.5,64C 61.0633,62.2862 58.73,60.4529 56.5,58.5C 57.1667,58.1667 57.8333,57.8333 58.5,57.5C 61.6377,60.0537 64.8044,60.0537 68,57.5C 69.1074,57.5852 70.1074,57.9186 71,58.5C 73.6741,57.2859 76.1741,55.9526 78.5,54.5C 78.274,57.7125 78.1073,60.7125 78,63.5C 76.2663,64.2489 74.433,64.7489 72.5,65C 76.8333,65.6667 81.1667,65.6667 85.5,65C 86.985,63.2435 86.6516,62.0768 84.5,61.5C 84.4208,60.0695 84.7542,58.7362 85.5,57.5C 87.1932,56.7717 88.6932,55.7717 90,54.5C 91.3282,47.6839 93.1615,41.0172 95.5,34.5 Z M 113.5,66.5 C 114.238,68.7171 114.571,70.8837 114.5,73C 113.953,73.9246 113.287,74.7579 112.5,75.5C 112.702,74.194 112.368,72.694 111.5,71C 111.899,69.2725 112.566,67.7725 113.5,66.5 Z M 106.5,82.5 C 106.768,84.099 106.434,85.4324 105.5,86.5C 104.046,84.7367 104.38,83.4033 106.5,82.5 Z M 105.5,86.5 C 105.483,88.0281 104.816,88.5281 103.5,88C 104.044,87.2828 104.711,86.7828 105.5,86.5 Z"/>
  </g>
  <g>
    <path fill="#e0cbcb" d="M 39.5,56.5 C 40.2899,57.7942 41.2899,58.9609 42.5,60C 41.9535,60.9246 41.2868,61.7579 40.5,62.5C 37.841,61.8981 37.1744,60.5648 38.5,58.5C 38.3284,57.5084 38.6618,56.8417 39.5,56.5 Z"/>
  </g>
  <g>
    <path fill="#ff8300" d="M 84.5,61.5 C 84.5386,62.7562 84.0386,63.7562 83,64.5C 78.6431,62.6895 78.4765,60.6895 82.5,58.5C 83.1757,59.6016 83.8423,60.6016 84.5,61.5 Z"/>
  </g>
  <g>
    <path fill="#d4b6b6" d="M 35.5,62.5 C 37.4835,62.3832 39.1502,63.0499 40.5,64.5C 39.9747,65.1924 39.3081,65.6924 38.5,66C 39.6843,67.1455 39.6843,68.3121 38.5,69.5C 37.8501,69.8039 37.1835,70.1373 36.5,70.5C 35.3961,69.3687 35.7295,68.5354 37.5,68C 35.6549,66.5771 33.6549,65.4104 31.5,64.5C 31.8076,63.6919 32.3076,63.0253 33,62.5C 33.7697,63.5981 34.603,63.5981 35.5,62.5 Z"/>
  </g>
  <g>
    <path fill="#caa4a4" d="M 152.5,58.5 C 153.94,60.3882 155.607,61.0549 157.5,60.5C 157.045,63.2511 155.711,65.4178 153.5,67C 158.79,66.7305 158.79,67.8972 153.5,70.5C 152.035,67.7358 150.701,64.9025 149.5,62C 150.071,60.4009 151.071,59.2342 152.5,58.5 Z"/>
  </g>
  <g>
    <path fill="#892910" d="M 151.5,76.5 C 152.833,76.5 154.167,76.5 155.5,76.5C 156.525,76.8966 156.692,77.5632 156,78.5C 147.438,84.793 139.438,91.793 132,99.5C 128.667,105.5 125.333,111.5 122,117.5C 120.533,120.758 119.367,124.092 118.5,127.5C 117.136,129.22 116.136,131.22 115.5,133.5C 116.325,134.386 117.325,134.719 118.5,134.5C 118.831,132.678 119.498,131.011 120.5,129.5C 121.458,129.047 122.292,128.381 123,127.5C 122.852,126.175 123.018,125.008 123.5,124C 126.503,122.834 129.17,121.167 131.5,119C 131.043,118.586 130.709,118.086 130.5,117.5C 131.747,115.677 132.414,113.677 132.5,111.5C 131.448,111.649 130.448,111.483 129.5,111C 132.464,110.16 132.797,109.16 130.5,108C 131.91,106.628 133.577,105.795 135.5,105.5C 135.389,106.117 135.056,106.617 134.5,107C 135.416,107.278 136.082,107.778 136.5,108.5C 135.621,112.647 134.121,116.647 132,120.5C 125.921,126.51 120.921,132.843 117,139.5C 116.692,138.692 116.192,138.025 115.5,137.5C 113.981,142.886 112.148,148.219 110,153.5C 106.005,155 102.338,154.333 99,151.5C 98.7679,152.737 98.2679,153.737 97.5,154.5C 97.5,142.833 97.5,131.167 97.5,119.5C 98.3299,128.658 98.8299,137.991 99,147.5C 99.7175,146.549 100.551,146.383 101.5,147C 99.9926,147.837 99.4926,149.004 100,150.5C 102.882,152.414 105.882,152.748 109,151.5C 110.031,145.517 110.864,139.517 111.5,133.5C 113.982,131.898 114.815,129.565 114,126.5C 113.667,126.833 113.333,127.167 113,127.5C 112.292,126.619 111.458,125.953 110.5,125.5C 109.957,125.44 109.624,125.107 109.5,124.5C 110.689,123.571 112.022,123.238 113.5,123.5C 114.936,117.584 115.936,111.584 116.5,105.5C 112.131,105.467 107.798,105.8 103.5,106.5C 107.918,105.021 112.585,104.021 117.5,103.5C 109.733,101.659 102.399,102.659 95.5,106.5C 89.304,103.119 82.6374,101.785 75.5,102.5C 63.736,102.441 52.4027,104.608 41.5,109C 40.2192,111.403 38.3858,113.237 36,114.5C 32.4255,129.695 28.5922,144.695 24.5,159.5C 24.5,156.833 24.5,154.167 24.5,151.5C 27.8908,139.031 31.0575,126.364 34,113.5C 35.1545,112.257 36.4878,111.257 38,110.5C 38.4828,109.552 38.6495,108.552 38.5,107.5C 49.8823,102.422 61.8823,99.7552 74.5,99.5C 80.4631,100.345 86.4631,101.012 92.5,101.5C 93.4822,102.141 94.4822,102.807 95.5,103.5C 97.0754,102.544 98.742,101.877 100.5,101.5C 106.329,101.032 111.996,100.365 117.5,99.5C 120.595,94.5695 124.595,90.4029 129.5,87C 137.199,84.1618 144.532,80.6618 151.5,76.5 Z"/>
  </g>
  <g>
    <path fill="#efce86" d="M 135.5,91.5 C 130.494,94.5061 126.494,98.5061 123.5,103.5C 125.539,90.7868 132.872,84.1201 145.5,83.5C 143.135,86.3502 140.135,88.1836 136.5,89C 135.748,89.6708 135.414,90.5041 135.5,91.5 Z"/>
  </g>
  <g>
    <path fill="#dbaf6f" d="M 151.5,77.5 C 153.028,77.5173 153.528,78.184 153,79.5C 146.472,83.4455 145.972,82.7788 151.5,77.5 Z"/>
  </g>
  <g>
    <path fill="#edc981" d="M 151.5,88.5 C 149.5,88.5 147.5,88.5 145.5,88.5C 144.736,91.787 142.903,94.4537 140,96.5C 137.959,99.2478 136.459,102.248 135.5,105.5C 133.577,105.795 131.91,106.628 130.5,108C 132.797,109.16 132.464,110.16 129.5,111C 130.448,111.483 131.448,111.649 132.5,111.5C 132.414,113.677 131.747,115.677 130.5,117.5C 130.709,118.086 131.043,118.586 131.5,119C 129.17,121.167 126.503,122.834 123.5,124C 123.018,125.008 122.852,126.175 123,127.5C 122.292,128.381 121.458,129.047 120.5,129.5C 119.167,129.5 118.5,128.833 118.5,127.5C 119.367,124.092 120.533,120.758 122,117.5C 125.333,111.5 128.667,105.5 132,99.5C 139.438,91.793 147.438,84.793 156,78.5C 156.692,77.5632 156.525,76.8966 155.5,76.5C 156.207,74.8656 157.373,73.5323 159,72.5C 158.175,78.5289 155.675,83.8623 151.5,88.5 Z"/>
  </g>
  <g>
    <path fill="#eece8a" d="M 121.5,105.5 C 120.397,109.497 118.731,113.164 116.5,116.5C 117.039,110.737 118.205,105.071 120,99.5C 121.065,97.6037 121.898,97.437 122.5,99C 121.713,101.099 121.38,103.266 121.5,105.5 Z"/>
  </g>
  <g>
    <path fill="#dba147" d="M 135.5,91.5 C 126.307,101.2 119.64,112.534 115.5,125.5C 115.167,125 114.833,124.5 114.5,124C 115.249,121.503 115.916,119.003 116.5,116.5C 118.731,113.164 120.397,109.497 121.5,105.5C 122.167,104.833 122.833,104.167 123.5,103.5C 126.494,98.5061 130.494,94.5061 135.5,91.5 Z"/>
  </g>
  <g>
    <path fill="#f6e7d0" d="M 103.5,106.5 C 101.418,106.472 99.5843,107.139 98,108.5C 97.5014,112.152 97.3347,115.818 97.5,119.5C 97.5,131.167 97.5,142.833 97.5,154.5C 97.3345,158.514 97.5012,162.514 98,166.5C 98.704,168.727 99.8706,169.06 101.5,167.5C 112.496,167.944 123.496,168.278 134.5,168.5C 144.418,169.474 154.418,169.807 164.5,169.5C 159.643,150.738 154.476,132.071 149,113.5C 144.996,111.414 140.829,109.748 136.5,108.5C 136.082,107.778 135.416,107.278 134.5,107C 135.056,106.617 135.389,106.117 135.5,105.5C 140.257,107.043 144.924,108.876 149.5,111C 150.158,112.905 151.325,114.405 153,115.5C 157.42,133.67 162.42,151.67 168,169.5C 168.798,171.259 168.631,172.926 167.5,174.5C 146.131,175.536 124.798,174.869 103.5,172.5C 101.395,174.468 98.8953,175.468 96,175.5C 91.8738,174.673 88.2072,173.006 85,170.5C 64.1821,172.083 43.3487,173.416 22.5,174.5C 23.3273,169.523 23.994,164.523 24.5,159.5C 28.5922,144.695 32.4255,129.695 36,114.5C 38.3858,113.237 40.2192,111.403 41.5,109C 52.4027,104.608 63.736,102.441 75.5,102.5C 82.6374,101.785 89.304,103.119 95.5,106.5C 102.399,102.659 109.733,101.659 117.5,103.5C 112.585,104.021 107.918,105.021 103.5,106.5 Z"/>
  </g>
  <g>
    <path fill="#daa75c" d="M 110.5,125.5 C 111.458,125.953 112.292,126.619 113,127.5C 113.333,127.167 113.667,126.833 114,126.5C 114.815,129.565 113.982,131.898 111.5,133.5C 111.414,132.504 111.748,131.671 112.5,131C 111.536,129.275 110.869,127.441 110.5,125.5 Z"/>
  </g>
  <g>
    <path fill="#c78b4d" d="M 118.5,127.5 C 118.5,128.833 119.167,129.5 120.5,129.5C 119.498,131.011 118.831,132.678 118.5,134.5C 117.325,134.719 116.325,134.386 115.5,133.5C 116.136,131.22 117.136,129.22 118.5,127.5 Z"/>
  </g>
  <g>
    <path fill="#b44100" d="M 63.5,114.5 C 62.7784,114.082 62.2784,113.416 62,112.5C 61.1747,116.211 61.3414,119.878 62.5,123.5C 63.1667,121.167 63.8333,118.833 64.5,116.5C 65.1517,118.808 66.485,120.475 68.5,121.5C 67.0779,121.75 66.0779,122.583 65.5,124C 62.5184,124.498 59.5184,124.665 56.5,124.5C 56.2627,125.791 56.596,126.791 57.5,127.5C 57.5,130.167 57.5,132.833 57.5,135.5C 57.1667,135.5 56.8333,135.5 56.5,135.5C 56.0603,133.156 55.0603,131.156 53.5,129.5C 54.8333,128.5 54.8333,127.5 53.5,126.5C 55.1038,123.597 56.1038,120.263 56.5,116.5C 58.3534,125.611 59.3534,125.277 59.5,115.5C 60.0652,113.614 61.0652,111.947 62.5,110.5C 63.4287,111.689 63.762,113.022 63.5,114.5 Z"/>
  </g>
  <g>
    <path fill="#e97300" d="M 68.5,121.5 C 66.485,120.475 65.1517,118.808 64.5,116.5C 63.8333,118.833 63.1667,121.167 62.5,123.5C 61.3414,119.878 61.1747,116.211 62,112.5C 62.2784,113.416 62.7784,114.082 63.5,114.5C 65.371,114.859 66.871,115.859 68,117.5C 68.3333,117.167 68.6667,116.833 69,116.5C 69.2326,118.78 70.066,120.78 71.5,122.5C 72.7641,118.82 72.7641,115.153 71.5,111.5C 72.325,110.614 73.325,110.281 74.5,110.5C 74.3367,112.857 74.5034,115.19 75,117.5C 75.3333,117.167 75.6667,116.833 76,116.5C 78.0286,124.421 79.5286,124.088 80.5,115.5C 81.48,118.086 81.8134,120.753 81.5,123.5C 78.9556,123.896 76.7889,123.229 75,121.5C 74.1612,122.624 72.9945,123.291 71.5,123.5C 69.9704,123.36 68.9704,122.693 68.5,121.5 Z"/>
  </g>
  <g>
    <path fill="#e56f00" d="M 48.5,110.5 C 51.6461,110.794 52.8128,112.461 52,115.5C 51.1667,114.5 50.3333,113.5 49.5,112.5C 48.2157,115.263 49.2157,116.93 52.5,117.5C 54.3,114.546 56.6333,113.879 59.5,115.5C 59.3534,125.277 58.3534,125.611 56.5,116.5C 56.1038,120.263 55.1038,123.597 53.5,126.5C 53.6602,124.801 53.4935,123.134 53,121.5C 50.1468,124.318 47.6468,124.152 45.5,121C 45.8333,120.5 46.1667,120 46.5,119.5C 47.2807,120.737 48.2807,121.737 49.5,122.5C 49.8333,122 50.1667,121.5 50.5,121C 48.3514,119.244 46.6848,117.077 45.5,114.5C 45.7538,112.583 46.7538,111.249 48.5,110.5 Z"/>
  </g>
  <g>
    <path fill="#942708" d="M 51.5,108.5 C 50.5,109.167 49.5,109.833 48.5,110.5C 46.7538,111.249 45.7538,112.583 45.5,114.5C 46.6848,117.077 48.3514,119.244 50.5,121C 50.1667,121.5 49.8333,122 49.5,122.5C 48.2807,121.737 47.2807,120.737 46.5,119.5C 46.1667,120 45.8333,120.5 45.5,121C 47.6468,124.152 50.1468,124.318 53,121.5C 53.4935,123.134 53.6602,124.801 53.5,126.5C 54.8333,127.5 54.8333,128.5 53.5,129.5C 53.6235,133.04 51.9568,135.04 48.5,135.5C 48.8226,131.774 48.4892,128.107 47.5,124.5C 45.9933,133.099 45.3267,141.766 45.5,150.5C 46.5,150.5 47.5,150.5 48.5,150.5C 48.373,147.755 49.5397,145.755 52,144.5C 52.7581,142.231 52.5914,140.064 51.5,138C 53.744,137.95 55.4107,137.117 56.5,135.5C 56.8333,135.5 57.1667,135.5 57.5,135.5C 59.5449,136.923 60.5449,138.923 60.5,141.5C 54.3336,140.814 52.167,143.481 54,149.5C 57.0567,150.451 60.2234,150.784 63.5,150.5C 64.1667,150.167 64.8333,149.833 65.5,149.5C 65.5,149.833 65.5,150.167 65.5,150.5C 70.3165,151.326 75.3165,151.826 80.5,152C 82.744,152.05 84.4107,152.883 85.5,154.5C 68.0555,152.185 51.0555,154.018 34.5,160C 42.4757,159.228 50.4757,158.228 58.5,157C 68.0189,156.261 77.5189,156.427 87,157.5C 88.1667,157.333 89.3333,157.167 90.5,157C 89.944,156.617 89.6107,156.117 89.5,155.5C 90.5,155.5 91.5,155.5 92.5,155.5C 92.1722,144.654 92.5056,133.987 93.5,123.5C 93.5,135.167 93.5,146.833 93.5,158.5C 94.0102,161.388 93.3435,163.721 91.5,165.5C 89.3037,165.41 87.137,165.077 85,164.5C 65.5525,166.573 46.0525,167.906 26.5,168.5C 29.8739,150.67 34.0405,133.003 39,115.5C 40.0113,114.663 41.1779,114.33 42.5,114.5C 42.238,113.022 42.5713,111.689 43.5,110.5C 46.0205,109.215 48.6872,108.548 51.5,108.5 Z"/>
  </g>
  <g>
    <path fill="#d56000" d="M 53.5,129.5 C 55.0603,131.156 56.0603,133.156 56.5,135.5C 55.4107,137.117 53.744,137.95 51.5,138C 52.5914,140.064 52.7581,142.231 52,144.5C 49.5397,145.755 48.373,147.755 48.5,150.5C 47.5,150.5 46.5,150.5 45.5,150.5C 45.3267,141.766 45.9933,133.099 47.5,124.5C 48.4892,128.107 48.8226,131.774 48.5,135.5C 51.9568,135.04 53.6235,133.04 53.5,129.5 Z"/>
  </g>
  <g>
    <path fill="#d56100" d="M 57.5,127.5 C 58.7562,127.461 59.7562,127.961 60.5,129C 59.2404,130.814 59.2404,132.647 60.5,134.5C 61.0252,130.304 63.3586,128.304 67.5,128.5C 68.0352,131.238 67.0352,133.072 64.5,134C 65.7932,134.49 67.1266,134.657 68.5,134.5C 68.5,132.5 68.5,130.5 68.5,128.5C 70.7659,128.141 72.5993,128.808 74,130.5C 74.5,130 75,129.5 75.5,129C 78.3715,128.685 81.2048,128.185 84,127.5C 85.2613,127.759 86.2613,128.426 87,129.5C 87.414,129.043 87.914,128.709 88.5,128.5C 89.8333,131.167 89.8333,133.833 88.5,136.5C 87.5344,134.604 87.2011,132.604 87.5,130.5C 82.5143,129.326 82.181,130.493 86.5,134C 86.0459,135.622 85.0459,136.788 83.5,137.5C 80.9334,137.222 78.2667,137.056 75.5,137C 72.9117,129.589 71.5784,129.756 71.5,137.5C 68.7284,136.629 66.0618,136.629 63.5,137.5C 63.5,141.833 63.5,146.167 63.5,150.5C 60.2234,150.784 57.0567,150.451 54,149.5C 52.167,143.481 54.3336,140.814 60.5,141.5C 60.5449,138.923 59.5449,136.923 57.5,135.5C 57.5,132.833 57.5,130.167 57.5,127.5 Z"/>
  </g>
  <g>
    <path fill="#912305" d="M 136.5,108.5 C 140.829,109.748 144.996,111.414 149,113.5C 154.476,132.071 159.643,150.738 164.5,169.5C 154.418,169.807 144.418,169.474 134.5,168.5C 126.345,167.527 118.012,166.86 109.5,166.5C 106.645,166.503 103.978,166.836 101.5,167.5C 99.8706,169.06 98.704,168.727 98,166.5C 97.5012,162.514 97.3345,158.514 97.5,154.5C 98.2679,153.737 98.7679,152.737 99,151.5C 102.338,154.333 106.005,155 110,153.5C 112.148,148.219 113.981,142.886 115.5,137.5C 116.192,138.025 116.692,138.692 117,139.5C 120.921,132.843 125.921,126.51 132,120.5C 134.121,116.647 135.621,112.647 136.5,108.5 Z"/>
  </g>
  <g>
    <path fill="#8f1f01" d="M 110.5,125.5 C 110.869,127.441 111.536,129.275 112.5,131C 111.748,131.671 111.414,132.504 111.5,133.5C 110.864,139.517 110.031,145.517 109,151.5C 105.882,152.748 102.882,152.414 100,150.5C 99.4926,149.004 99.9926,147.837 101.5,147C 100.551,146.383 99.7175,146.549 99,147.5C 98.8299,137.991 98.3299,128.658 97.5,119.5C 97.3347,115.818 97.5014,112.152 98,108.5C 99.5843,107.139 101.418,106.472 103.5,106.5C 107.798,105.8 112.131,105.467 116.5,105.5C 115.936,111.584 114.936,117.584 113.5,123.5C 112.022,123.238 110.689,123.571 109.5,124.5C 109.624,125.107 109.957,125.44 110.5,125.5 Z"/>
  </g>
  <g>
    <path fill="#952501" d="M 93.5,123.5 C 92.5056,133.987 92.1722,144.654 92.5,155.5C 91.5,155.5 90.5,155.5 89.5,155.5C 87.901,155.768 86.5676,155.434 85.5,154.5C 84.4107,152.883 82.744,152.05 80.5,152C 75.3165,151.826 70.3165,151.326 65.5,150.5C 67.5,150.5 69.5,150.5 71.5,150.5C 71.5,147.5 71.5,144.5 71.5,141.5C 70.5,141.5 69.5,141.5 68.5,141.5C 68.1268,150.744 67.1268,150.744 65.5,141.5C 64.2706,144.199 64.2706,146.865 65.5,149.5C 64.8333,149.833 64.1667,150.167 63.5,150.5C 63.5,146.167 63.5,141.833 63.5,137.5C 66.0618,136.629 68.7284,136.629 71.5,137.5C 71.5784,129.756 72.9117,129.589 75.5,137C 78.2667,137.056 80.9334,137.222 83.5,137.5C 85.0459,136.788 86.0459,135.622 86.5,134C 82.181,130.493 82.5143,129.326 87.5,130.5C 87.2011,132.604 87.5344,134.604 88.5,136.5C 89.8333,133.833 89.8333,131.167 88.5,128.5C 87.914,128.709 87.414,129.043 87,129.5C 86.2613,128.426 85.2613,127.759 84,127.5C 81.2048,128.185 78.3715,128.685 75.5,129C 75,129.5 74.5,130 74,130.5C 72.5993,128.808 70.7659,128.141 68.5,128.5C 68.5,130.5 68.5,132.5 68.5,134.5C 67.1266,134.657 65.7932,134.49 64.5,134C 67.0352,133.072 68.0352,131.238 67.5,128.5C 63.3586,128.304 61.0252,130.304 60.5,134.5C 59.2404,132.647 59.2404,130.814 60.5,129C 59.7562,127.961 58.7562,127.461 57.5,127.5C 56.596,126.791 56.2627,125.791 56.5,124.5C 59.5184,124.665 62.5184,124.498 65.5,124C 66.0779,122.583 67.0779,121.75 68.5,121.5C 68.9704,122.693 69.9704,123.36 71.5,123.5C 72.9945,123.291 74.1612,122.624 75,121.5C 76.7889,123.229 78.9556,123.896 81.5,123.5C 81.8134,120.753 81.48,118.086 80.5,115.5C 79.5286,124.088 78.0286,124.421 76,116.5C 75.6667,116.833 75.3333,117.167 75,117.5C 74.5034,115.19 74.3367,112.857 74.5,110.5C 73.325,110.281 72.325,110.614 71.5,111.5C 72.7641,115.153 72.7641,118.82 71.5,122.5C 70.066,120.78 69.2326,118.78 69,116.5C 68.6667,116.833 68.3333,117.167 68,117.5C 66.871,115.859 65.371,114.859 63.5,114.5C 63.762,113.022 63.4287,111.689 62.5,110.5C 61.0652,111.947 60.0652,113.614 59.5,115.5C 56.6333,113.879 54.3,114.546 52.5,117.5C 49.2157,116.93 48.2157,115.263 49.5,112.5C 50.3333,113.5 51.1667,114.5 52,115.5C 52.8128,112.461 51.6461,110.794 48.5,110.5C 49.5,109.833 50.5,109.167 51.5,108.5C 64.2773,104.302 77.2773,103.802 90.5,107C 91.4162,107.374 92.2496,107.874 93,108.5C 93.4993,113.489 93.6659,118.489 93.5,123.5 Z"/>
  </g>
  <g>
    <path fill="#d86300" d="M 65.5,150.5 C 65.5,150.167 65.5,149.833 65.5,149.5C 64.2706,146.865 64.2706,144.199 65.5,141.5C 67.1268,150.744 68.1268,150.744 68.5,141.5C 69.5,141.5 70.5,141.5 71.5,141.5C 71.5,144.5 71.5,147.5 71.5,150.5C 69.5,150.5 67.5,150.5 65.5,150.5 Z"/>
  </g>
  <g>
    <path fill="#7a1a09" d="M 151.5,88.5 C 150.048,89.3019 148.382,89.8019 146.5,90C 147.252,90.6708 147.586,91.5041 147.5,92.5C 144.477,95.5257 141.81,98.8591 139.5,102.5C 143.531,104.837 147.531,107.171 151.5,109.5C 151.662,111.824 152.828,113.491 155,114.5C 157.282,124.799 160.115,134.799 163.5,144.5C 166.286,152.959 168.786,161.626 171,170.5C 171.758,172.769 171.591,174.936 170.5,177C 166.252,178.064 161.919,178.564 157.5,178.5C 140.45,177.847 123.45,176.847 106.5,175.5C 103.49,177.421 100.156,178.421 96.5,178.5C 92.1568,177.831 87.8235,177.164 83.5,176.5C 83.5,175.5 83.5,174.5 83.5,173.5C 62.874,175.486 42.2073,176.653 21.5,177C 20.0203,175.701 19.3536,174.034 19.5,172C 20.8045,164.952 22.4711,158.118 24.5,151.5C 24.5,154.167 24.5,156.833 24.5,159.5C 23.994,164.523 23.3273,169.523 22.5,174.5C 43.3487,173.416 64.1821,172.083 85,170.5C 88.2072,173.006 91.8738,174.673 96,175.5C 98.8953,175.468 101.395,174.468 103.5,172.5C 124.798,174.869 146.131,175.536 167.5,174.5C 168.631,172.926 168.798,171.259 168,169.5C 162.42,151.67 157.42,133.67 153,115.5C 151.325,114.405 150.158,112.905 149.5,111C 144.924,108.876 140.257,107.043 135.5,105.5C 136.459,102.248 137.959,99.2478 140,96.5C 142.903,94.4537 144.736,91.787 145.5,88.5C 147.5,88.5 149.5,88.5 151.5,88.5 Z"/>
  </g>
  <g>
    <path fill="#a94f33" d="M 101.5,167.5 C 103.978,166.836 106.645,166.503 109.5,166.5C 118.012,166.86 126.345,167.527 134.5,168.5C 123.496,168.278 112.496,167.944 101.5,167.5 Z"/>
  </g>
  <g>
    <path fill="#c48469" d="M 93.5,158.5 C 94.4731,160.948 94.8064,163.615 94.5,166.5C 93.209,166.737 92.209,166.404 91.5,165.5C 93.3435,163.721 94.0102,161.388 93.5,158.5 Z"/>
  </g>
  <g>
    <path fill="#d5a48a" d="M 58.5,158.5 C 68.5797,158.077 78.5797,158.577 88.5,160C 72.12,160.324 55.7866,160.991 39.5,162C 45.9962,160.959 52.3296,159.792 58.5,158.5 Z"/>
  </g>
  <g>
    <path fill="#f5e5ce" d="M 112.5,155.5 C 128.023,154.965 143.023,157.465 157.5,163C 139.216,161.712 120.883,160.712 102.5,160C 105.703,157.997 109.036,156.497 112.5,155.5 Z"/>
  </g>
  <g>
    <path fill="#edd5bd" d="M 85.5,154.5 C 86.5676,155.434 87.901,155.768 89.5,155.5C 89.6107,156.117 89.944,156.617 90.5,157C 89.3333,157.167 88.1667,157.333 87,157.5C 77.5189,156.427 68.0189,156.261 58.5,157C 50.4757,158.228 42.4757,159.228 34.5,160C 51.0555,154.018 68.0555,152.185 85.5,154.5 Z"/>
  </g>
</svg>
